HIERARCHY
ROOT Hips
{
	OFFSET -0.001795 -0.223333 0.028219
	CHANNELS 6 Xposition Yposition Zposition Zrotation Yrotation Xrotation 
	JOINT LeftUpLeg
	{
		OFFSET 0.069520 -0.091406 -0.006815
		CHANNELS 3 Zrotation Yrotation Xrotation
		JOINT LeftLeg
		{
			OFFSET 0.034277 -0.375199 -0.004496
			CHANNELS 3 Zrotation Yrotation Xrotation
			JOINT LeftFoot
			{
				OFFSET -0.013596 -0.397961 -0.043693
				CHANNELS 3 Zrotation Yrotation Xrotation
				JOINT LeftToe
				{
					OFFSET 0.026358 -0.055791 0.119288
					CHANNELS 3 Zrotation Yrotation Xrotation
					End Site
					{
						OFFSET 0.000000 0.000000 0.000000
					}
				}
			}
		}
	}
	JOINT RightUpLeg
	{
		OFFSET -0.067670 -0.090522 -0.004320
		CHANNELS 3 Zrotation Yrotation Xrotation
		JOINT RightLeg
		{
			OFFSET -0.038290 -0.382569 -0.008850
			CHANNELS 3 Zrotation Yrotation Xrotation
			JOINT RightFoot
			{
				OFFSET 0.015774 -0.398415 -0.042312
				CHANNELS 3 Zrotation Yrotation Xrotation
				JOINT RightToe
				{
					OFFSET -0.025372 -0.048144 0.123348
					CHANNELS 3 Zrotation Yrotation Xrotation
					End Site
					{
						OFFSET 0.000000 0.000000 0.000000
					}
				}
			}
		}
	}
	JOINT Spine
	{
		OFFSET -0.002533 0.108963 -0.026696
		CHANNELS 3 Zrotation Yrotation Xrotation
		JOINT Spine1
		{
			OFFSET 0.005487 0.135180 0.001092
			CHANNELS 3 Zrotation Yrotation Xrotation
			JOINT Spine2
			{
				OFFSET 0.001457 0.052922 0.025425
				CHANNELS 3 Zrotation Yrotation Xrotation
				JOINT Neck
				{
					OFFSET -0.002778 0.213870 -0.042857
					CHANNELS 3 Zrotation Yrotation Xrotation
					JOINT Head
					{
						OFFSET 0.005152 0.064970 0.051349
						CHANNELS 3 Zrotation Yrotation Xrotation
						End Site
						{
							OFFSET 0.000000 0.000000 0.000000
						}
					}
				}
				JOINT LeftShoulder
				{
					OFFSET 0.078845 0.121749 -0.034090
					CHANNELS 3 Zrotation Yrotation Xrotation
					JOINT LeftArm
					{
						OFFSET 0.090977 0.030469 -0.008868
						CHANNELS 3 Zrotation Yrotation Xrotation
						JOINT LeftForeArm
						{
							OFFSET 0.259612 -0.012772 -0.027456
							CHANNELS 3 Zrotation Yrotation Xrotation
							JOINT LeftHand
							{
								OFFSET 0.249234 0.008986 -0.001171
								CHANNELS 3 Zrotation Yrotation Xrotation
								End Site
								{
									OFFSET 0.000000 0.000000 0.000000
								}
							}
						}
					}
				}
				JOINT RightShoulder
				{
					OFFSET -0.081759 0.118833 -0.038615
					CHANNELS 3 Zrotation Yrotation Xrotation
					JOINT RightArm
					{
						OFFSET -0.096012 0.032551 -0.009143
						CHANNELS 3 Zrotation Yrotation Xrotation
						JOINT RightForeArm
						{
							OFFSET -0.253742 -0.013329 -0.021401
							CHANNELS 3 Zrotation Yrotation Xrotation
							JOINT RightHand
							{
								OFFSET -0.255298 0.007772 -0.005559
								CHANNELS 3 Zrotation Yrotation Xrotation
								End Site
								{
									OFFSET 0.000000 0.000000 0.000000
								}
							}
						}
					}
				}
			}
		}
	}
}
MOTION
Frames: 7
Frame Time: 0.050000
0.000000 0.938755 0.000000 -0.688891 -2.954864 0.349921 6.404705 -0.515960 -14.749880 -8.944770 3.240879 36.105586 7.104533 14.985352 2.506855 0.000000 0.000000 0.000000 1.046925 -0.019685 -0.103021 1.902510 -0.086606 4.090781 0.727036 -0.016448 3.233679 0.000000 0.000000 0.000000 6.506982 -1.183592 11.850286 -5.247857 1.948230 -18.465087 0.376950 6.185457 21.756209 8.006057 -2.820331 -21.962536 0.000000 0.000000 0.000000 -23.182885 -9.015900 2.319616 -46.122000 -7.205411 -4.094546 -7.355305 -29.377854 3.040207 0.000000 0.000000 0.000000 25.228938 0.163115 -0.171124 48.968700 10.218575 -2.898578 7.912159 27.700229 3.230945 0.000000 0.000000 0.000000 
-0.000459 0.939196 0.017915 -0.547770 -2.282174 0.585542 7.073011 -0.536852 -18.171962 -9.530595 3.252127 34.324445 7.868024 16.497929 3.649815 0.000000 0.000000 0.000000 1.064921 -0.170938 1.303602 1.646586 -0.078814 3.279129 0.543410 -0.441766 3.284929 0.000000 0.000000 0.000000 6.368383 -1.224436 12.303632 -4.720221 1.785783 -19.681982 0.258459 6.849315 22.379633 8.046472 -2.511835 -23.119082 0.000000 0.000000 0.000000 -22.991974 -8.500498 1.693389 -45.783620 -6.497726 -4.276316 -7.268864 -29.062199 2.923654 0.000000 0.000000 0.000000 24.088249 -0.043707 0.106445 50.004005 10.330395 -2.984187 8.693862 28.884237 3.685264 0.000000 0.000000 0.000000 
0.000492 0.938598 0.037515 -0.337892 -2.361975 -0.305672 6.883834 -0.590811 -19.901019 -8.883742 2.406200 25.721322 10.487793 20.940690 11.455355 0.000000 0.000000 0.000000 0.546583 -0.450179 4.264753 1.812372 -0.132983 2.024265 0.701295 -0.026225 3.192590 0.000000 0.000000 0.000000 6.874122 -1.376466 13.520967 -5.236491 1.911469 -20.924188 0.203152 7.495346 23.038500 7.737532 -2.469972 -21.714500 0.000000 0.000000 0.000000 -22.072000 -9.197262 1.987817 -45.198619 -6.585531 -4.246684 -7.583240 -26.686309 2.710498 0.000000 0.000000 0.000000 24.703530 -0.010701 0.353454 49.041281 11.304365 -2.760504 8.423409 28.431778 3.572028 0.000000 0.000000 0.000000 
0.002782 0.935599 0.059281 -0.424248 -3.136239 -0.725847 6.984067 -0.539705 -20.314406 -6.458355 1.143238 13.311721 14.017073 24.301097 28.970679 0.000000 0.000000 0.000000 -0.399601 -0.568491 6.282333 2.922430 -0.263437 1.749646 1.018878 1.041970 2.564451 0.000000 0.000000 0.000000 7.640714 -1.508095 14.140297 -5.965219 2.094015 -21.061369 -0.332215 8.648692 23.170042 7.767225 -2.106919 -23.334935 0.000000 0.000000 0.000000 -21.275429 -9.671367 2.078857 -44.399466 -6.485466 -4.180546 -7.168136 -26.281102 2.522895 0.000000 0.000000 0.000000 25.318366 -0.248777 0.459380 48.518609 11.937154 -2.628492 9.786260 29.393637 4.112218 0.000000 0.000000 0.000000 
0.006453 0.931674 0.083484 -0.318101 -4.138394 -0.840864 6.729135 -0.530120 -20.055994 -4.247004 0.532204 3.721865 11.255916 21.100527 29.650508 0.000000 0.000000 0.000000 -1.076302 -0.627056 7.836856 2.858333 -0.246203 1.922016 1.194618 2.061933 1.511654 0.000000 0.000000 0.000000 7.257017 -1.498330 14.827379 -5.561826 1.962637 -21.207629 -0.299699 9.475281 22.875786 7.845169 -1.915802 -24.520692 0.000000 0.000000 0.000000 -20.955803 -9.793292 2.086859 -44.020428 -6.408717 -4.125844 -5.994060 -25.452111 2.163219 0.000000 0.000000 0.000000 25.502605 -0.315921 0.470950 48.061824 12.697707 -2.321381 9.867983 30.157347 4.268401 0.000000 0.000000 0.000000 
0.011697 0.926241 0.110754 -0.275583 -4.026485 -1.443963 6.207549 -0.601242 -19.221143 -3.103217 0.366215 0.519255 6.070291 14.766612 21.668136 0.000000 0.000000 0.000000 -1.266725 -0.788141 10.082321 2.148302 -0.157402 2.352836 0.847480 2.014209 0.210950 0.000000 0.000000 0.000000 7.044605 -1.488486 15.165986 -5.669602 2.010763 -20.798044 -0.165813 9.009736 22.575719 7.669946 -1.906418 -24.310285 0.000000 0.000000 0.000000 -21.057224 -10.859001 2.777177 -43.232256 -7.131972 -3.809993 -4.012977 -24.441340 1.663675 0.000000 0.000000 0.000000 25.858394 0.110112 0.591021 47.908832 12.681024 -2.274306 9.741932 30.851376 4.313118 0.000000 0.000000 0.000000 
0.018679 0.920065 0.141061 -0.311569 -4.933724 -2.118484 6.011137 -0.566461 -18.315204 -3.101115 0.367600 2.236610 4.503733 12.183028 18.342862 0.000000 0.000000 0.000000 -1.784033 -0.855413 12.194026 1.433361 -0.040267 3.305325 0.866995 2.783996 -0.891972 0.000000 0.000000 0.000000 6.543811 -1.413187 15.480106 -5.496358 1.942217 -20.925198 -0.413064 9.616652 22.979822 8.532900 -2.497577 -23.861468 0.000000 0.000000 0.000000 -20.276213 -11.362609 3.092965 -42.644072 -8.663976 -3.321581 -2.153163 -23.161294 1.197472 0.000000 0.000000 0.000000 26.908511 0.286588 0.762786 47.401836 12.964420 -2.282193 10.009786 31.956719 4.588702 0.000000 0.000000 0.000000 
